<mxfile host="app.diagrams.net" modified="2023-03-24T22:02:58.197Z" agent="Mozilla/5.0 (Windows NT 10.0; Win64; x64) AppleWebKit/537.36 (KHTML, like Gecko) Chrome/111.0.0.0 Safari/537.36" etag="DZ6nJAfQKKliLpffeyXO" version="21.1.0" type="device">
  <diagram name="Page-1" id="iACqqD5qZBo6MSsnnB4V">
    <mxGraphModel dx="2477" dy="1433" grid="0" gridSize="10" guides="1" tooltips="1" connect="1" arrows="1" fold="1" page="1" pageScale="1" pageWidth="827" pageHeight="1169" background="#FFFFFF" math="0" shadow="0">
      <root>
        <mxCell id="0" />
        <mxCell id="1" parent="0" />
        <mxCell id="Rc3S7-IxfgXDABNszkai-1" value="&lt;font style=&quot;font-size: 27px;&quot;&gt;&lt;b&gt;Student Information Management System&lt;/b&gt;&lt;/font&gt;" style="text;html=1;strokeColor=none;fillColor=none;align=center;verticalAlign=middle;whiteSpace=wrap;rounded=0;" vertex="1" parent="1">
          <mxGeometry x="531" y="214" width="595" height="49" as="geometry" />
        </mxCell>
        <mxCell id="Rc3S7-IxfgXDABNszkai-137" value="" style="endArrow=none;html=1;rounded=0;strokeWidth=5;" edge="1" parent="1">
          <mxGeometry width="50" height="50" relative="1" as="geometry">
            <mxPoint x="101" y="138" as="sourcePoint" />
            <mxPoint x="1558" y="138" as="targetPoint" />
          </mxGeometry>
        </mxCell>
        <mxCell id="Rc3S7-IxfgXDABNszkai-138" value="" style="endArrow=none;html=1;rounded=0;strokeWidth=5;" edge="1" parent="1">
          <mxGeometry width="50" height="50" relative="1" as="geometry">
            <mxPoint x="79" y="937" as="sourcePoint" />
            <mxPoint x="1536" y="937" as="targetPoint" />
          </mxGeometry>
        </mxCell>
        <mxCell id="Rc3S7-IxfgXDABNszkai-139" value="" style="endArrow=none;html=1;rounded=0;strokeWidth=5;" edge="1" parent="1">
          <mxGeometry width="50" height="50" relative="1" as="geometry">
            <mxPoint x="188" y="1036" as="sourcePoint" />
            <mxPoint x="188" y="35" as="targetPoint" />
          </mxGeometry>
        </mxCell>
        <mxCell id="Rc3S7-IxfgXDABNszkai-140" value="" style="endArrow=none;html=1;rounded=0;strokeWidth=5;" edge="1" parent="1">
          <mxGeometry width="50" height="50" relative="1" as="geometry">
            <mxPoint x="1471" y="1052" as="sourcePoint" />
            <mxPoint x="1471" y="51" as="targetPoint" />
          </mxGeometry>
        </mxCell>
        <mxCell id="Rc3S7-IxfgXDABNszkai-141" value="Login As Admin" style="rounded=1;whiteSpace=wrap;html=1;fillColor=#dae8fc;strokeColor=#6c8ebf;" vertex="1" parent="1">
          <mxGeometry x="737.5" y="633" width="182" height="44" as="geometry" />
        </mxCell>
        <mxCell id="Rc3S7-IxfgXDABNszkai-145" value="" style="group" vertex="1" connectable="0" parent="1">
          <mxGeometry x="262" y="345" width="514.8694397897435" height="200" as="geometry" />
        </mxCell>
        <mxCell id="Rc3S7-IxfgXDABNszkai-42" value="" style="shape=table;startSize=0;container=1;collapsible=0;childLayout=tableLayout;fontSize=12;" vertex="1" parent="Rc3S7-IxfgXDABNszkai-145">
          <mxGeometry width="514.8694397897435" height="200" as="geometry" />
        </mxCell>
        <mxCell id="Rc3S7-IxfgXDABNszkai-43" value="" style="shape=tableRow;horizontal=0;startSize=0;swimlaneHead=0;swimlaneBody=0;strokeColor=inherit;top=0;left=0;bottom=0;right=0;collapsible=0;dropTarget=0;fillColor=none;points=[[0,0.5],[1,0.5]];portConstraint=eastwest;fontSize=12;" vertex="1" parent="Rc3S7-IxfgXDABNszkai-42">
          <mxGeometry width="514.8694397897435" height="40" as="geometry" />
        </mxCell>
        <mxCell id="Rc3S7-IxfgXDABNszkai-44" value="TC No" style="shape=partialRectangle;html=1;whiteSpace=wrap;connectable=0;strokeColor=inherit;overflow=hidden;fillColor=none;top=0;left=0;bottom=0;right=0;pointerEvents=1;fontSize=12;" vertex="1" parent="Rc3S7-IxfgXDABNszkai-43">
          <mxGeometry width="79" height="40" as="geometry">
            <mxRectangle width="79" height="40" as="alternateBounds" />
          </mxGeometry>
        </mxCell>
        <mxCell id="Rc3S7-IxfgXDABNszkai-45" value="Name" style="shape=partialRectangle;html=1;whiteSpace=wrap;connectable=0;strokeColor=inherit;overflow=hidden;fillColor=none;top=0;left=0;bottom=0;right=0;pointerEvents=1;fontSize=12;" vertex="1" parent="Rc3S7-IxfgXDABNszkai-43">
          <mxGeometry x="79" width="59" height="40" as="geometry">
            <mxRectangle width="59" height="40" as="alternateBounds" />
          </mxGeometry>
        </mxCell>
        <mxCell id="Rc3S7-IxfgXDABNszkai-46" value="Surname" style="shape=partialRectangle;html=1;whiteSpace=wrap;connectable=0;strokeColor=inherit;overflow=hidden;fillColor=none;top=0;left=0;bottom=0;right=0;pointerEvents=1;fontSize=12;" vertex="1" parent="Rc3S7-IxfgXDABNszkai-43">
          <mxGeometry x="138" width="82" height="40" as="geometry">
            <mxRectangle width="82" height="40" as="alternateBounds" />
          </mxGeometry>
        </mxCell>
        <mxCell id="Rc3S7-IxfgXDABNszkai-68" value="Department ID" style="shape=partialRectangle;html=1;whiteSpace=wrap;connectable=0;strokeColor=inherit;overflow=hidden;fillColor=none;top=0;left=0;bottom=0;right=0;pointerEvents=1;fontSize=12;" vertex="1" parent="Rc3S7-IxfgXDABNszkai-43">
          <mxGeometry x="220" width="91" height="40" as="geometry">
            <mxRectangle width="91" height="40" as="alternateBounds" />
          </mxGeometry>
        </mxCell>
        <mxCell id="Rc3S7-IxfgXDABNszkai-71" value="Email" style="shape=partialRectangle;html=1;whiteSpace=wrap;connectable=0;strokeColor=inherit;overflow=hidden;fillColor=none;top=0;left=0;bottom=0;right=0;pointerEvents=1;fontSize=12;" vertex="1" parent="Rc3S7-IxfgXDABNszkai-43">
          <mxGeometry x="311" width="102" height="40" as="geometry">
            <mxRectangle width="102" height="40" as="alternateBounds" />
          </mxGeometry>
        </mxCell>
        <mxCell id="Rc3S7-IxfgXDABNszkai-118" value="Login as student" style="shape=partialRectangle;html=1;whiteSpace=wrap;connectable=0;strokeColor=inherit;overflow=hidden;fillColor=none;top=0;left=0;bottom=0;right=0;pointerEvents=1;fontSize=12;" vertex="1" parent="Rc3S7-IxfgXDABNszkai-43">
          <mxGeometry x="413" width="102" height="40" as="geometry">
            <mxRectangle width="102" height="40" as="alternateBounds" />
          </mxGeometry>
        </mxCell>
        <mxCell id="Rc3S7-IxfgXDABNszkai-47" value="" style="shape=tableRow;horizontal=0;startSize=0;swimlaneHead=0;swimlaneBody=0;strokeColor=inherit;top=0;left=0;bottom=0;right=0;collapsible=0;dropTarget=0;fillColor=none;points=[[0,0.5],[1,0.5]];portConstraint=eastwest;fontSize=12;" vertex="1" parent="Rc3S7-IxfgXDABNszkai-42">
          <mxGeometry y="40" width="514.8694397897435" height="40" as="geometry" />
        </mxCell>
        <mxCell id="Rc3S7-IxfgXDABNszkai-48" value="12345601" style="shape=partialRectangle;html=1;whiteSpace=wrap;connectable=0;strokeColor=inherit;overflow=hidden;fillColor=none;top=0;left=0;bottom=0;right=0;pointerEvents=1;fontSize=12;" vertex="1" parent="Rc3S7-IxfgXDABNszkai-47">
          <mxGeometry width="79" height="40" as="geometry">
            <mxRectangle width="79" height="40" as="alternateBounds" />
          </mxGeometry>
        </mxCell>
        <mxCell id="Rc3S7-IxfgXDABNszkai-49" value="Özgül" style="shape=partialRectangle;html=1;whiteSpace=wrap;connectable=0;strokeColor=inherit;overflow=hidden;fillColor=none;top=0;left=0;bottom=0;right=0;pointerEvents=1;fontSize=12;" vertex="1" parent="Rc3S7-IxfgXDABNszkai-47">
          <mxGeometry x="79" width="59" height="40" as="geometry">
            <mxRectangle width="59" height="40" as="alternateBounds" />
          </mxGeometry>
        </mxCell>
        <mxCell id="Rc3S7-IxfgXDABNszkai-50" value="Acarkan" style="shape=partialRectangle;html=1;whiteSpace=wrap;connectable=0;strokeColor=inherit;overflow=hidden;fillColor=none;top=0;left=0;bottom=0;right=0;pointerEvents=1;fontSize=12;" vertex="1" parent="Rc3S7-IxfgXDABNszkai-47">
          <mxGeometry x="138" width="82" height="40" as="geometry">
            <mxRectangle width="82" height="40" as="alternateBounds" />
          </mxGeometry>
        </mxCell>
        <mxCell id="Rc3S7-IxfgXDABNszkai-69" value="1" style="shape=partialRectangle;html=1;whiteSpace=wrap;connectable=0;strokeColor=inherit;overflow=hidden;fillColor=none;top=0;left=0;bottom=0;right=0;pointerEvents=1;fontSize=12;" vertex="1" parent="Rc3S7-IxfgXDABNszkai-47">
          <mxGeometry x="220" width="91" height="40" as="geometry">
            <mxRectangle width="91" height="40" as="alternateBounds" />
          </mxGeometry>
        </mxCell>
        <mxCell id="Rc3S7-IxfgXDABNszkai-72" value="&lt;p style=&quot;line-height: 20%;&quot;&gt;ozgulacarkan&lt;/p&gt;&lt;p style=&quot;line-height: 20%;&quot;&gt;@gmail.com&lt;/p&gt;" style="shape=partialRectangle;html=1;connectable=0;strokeColor=inherit;overflow=hidden;fillColor=none;top=0;left=0;bottom=0;right=0;pointerEvents=1;fontSize=12;verticalAlign=middle;horizontal=1;spacingTop=-8;" vertex="1" parent="Rc3S7-IxfgXDABNszkai-47">
          <mxGeometry x="311" width="102" height="40" as="geometry">
            <mxRectangle width="102" height="40" as="alternateBounds" />
          </mxGeometry>
        </mxCell>
        <mxCell id="Rc3S7-IxfgXDABNszkai-119" style="shape=partialRectangle;html=1;connectable=0;strokeColor=inherit;overflow=hidden;fillColor=none;top=0;left=0;bottom=0;right=0;pointerEvents=1;fontSize=12;verticalAlign=middle;horizontal=1;spacingTop=-8;" vertex="1" parent="Rc3S7-IxfgXDABNszkai-47">
          <mxGeometry x="413" width="102" height="40" as="geometry">
            <mxRectangle width="102" height="40" as="alternateBounds" />
          </mxGeometry>
        </mxCell>
        <mxCell id="Rc3S7-IxfgXDABNszkai-51" value="" style="shape=tableRow;horizontal=0;startSize=0;swimlaneHead=0;swimlaneBody=0;strokeColor=inherit;top=0;left=0;bottom=0;right=0;collapsible=0;dropTarget=0;fillColor=none;points=[[0,0.5],[1,0.5]];portConstraint=eastwest;fontSize=12;" vertex="1" parent="Rc3S7-IxfgXDABNszkai-42">
          <mxGeometry y="80" width="514.8694397897435" height="40" as="geometry" />
        </mxCell>
        <mxCell id="Rc3S7-IxfgXDABNszkai-52" value="12345602" style="shape=partialRectangle;html=1;whiteSpace=wrap;connectable=0;strokeColor=inherit;overflow=hidden;fillColor=none;top=0;left=0;bottom=0;right=0;pointerEvents=1;fontSize=12;" vertex="1" parent="Rc3S7-IxfgXDABNszkai-51">
          <mxGeometry width="79" height="40" as="geometry">
            <mxRectangle width="79" height="40" as="alternateBounds" />
          </mxGeometry>
        </mxCell>
        <mxCell id="Rc3S7-IxfgXDABNszkai-53" value="Bahadır" style="shape=partialRectangle;html=1;whiteSpace=wrap;connectable=0;strokeColor=inherit;overflow=hidden;fillColor=none;top=0;left=0;bottom=0;right=0;pointerEvents=1;fontSize=12;" vertex="1" parent="Rc3S7-IxfgXDABNszkai-51">
          <mxGeometry x="79" width="59" height="40" as="geometry">
            <mxRectangle width="59" height="40" as="alternateBounds" />
          </mxGeometry>
        </mxCell>
        <mxCell id="Rc3S7-IxfgXDABNszkai-54" value="Kula" style="shape=partialRectangle;html=1;whiteSpace=wrap;connectable=0;strokeColor=inherit;overflow=hidden;fillColor=none;top=0;left=0;bottom=0;right=0;pointerEvents=1;fontSize=12;" vertex="1" parent="Rc3S7-IxfgXDABNszkai-51">
          <mxGeometry x="138" width="82" height="40" as="geometry">
            <mxRectangle width="82" height="40" as="alternateBounds" />
          </mxGeometry>
        </mxCell>
        <mxCell id="Rc3S7-IxfgXDABNszkai-70" value="1" style="shape=partialRectangle;html=1;whiteSpace=wrap;connectable=0;strokeColor=inherit;overflow=hidden;fillColor=none;top=0;left=0;bottom=0;right=0;pointerEvents=1;fontSize=12;" vertex="1" parent="Rc3S7-IxfgXDABNszkai-51">
          <mxGeometry x="220" width="91" height="40" as="geometry">
            <mxRectangle width="91" height="40" as="alternateBounds" />
          </mxGeometry>
        </mxCell>
        <mxCell id="Rc3S7-IxfgXDABNszkai-73" value="bahadırkula&lt;br&gt;@gmail.com" style="shape=partialRectangle;html=1;whiteSpace=wrap;connectable=0;strokeColor=inherit;overflow=hidden;fillColor=none;top=0;left=0;bottom=0;right=0;pointerEvents=1;fontSize=12;" vertex="1" parent="Rc3S7-IxfgXDABNszkai-51">
          <mxGeometry x="311" width="102" height="40" as="geometry">
            <mxRectangle width="102" height="40" as="alternateBounds" />
          </mxGeometry>
        </mxCell>
        <mxCell id="Rc3S7-IxfgXDABNszkai-120" style="shape=partialRectangle;html=1;whiteSpace=wrap;connectable=0;strokeColor=inherit;overflow=hidden;fillColor=none;top=0;left=0;bottom=0;right=0;pointerEvents=1;fontSize=12;" vertex="1" parent="Rc3S7-IxfgXDABNszkai-51">
          <mxGeometry x="413" width="102" height="40" as="geometry">
            <mxRectangle width="102" height="40" as="alternateBounds" />
          </mxGeometry>
        </mxCell>
        <mxCell id="Rc3S7-IxfgXDABNszkai-74" style="shape=tableRow;horizontal=0;startSize=0;swimlaneHead=0;swimlaneBody=0;strokeColor=inherit;top=0;left=0;bottom=0;right=0;collapsible=0;dropTarget=0;fillColor=none;points=[[0,0.5],[1,0.5]];portConstraint=eastwest;fontSize=12;" vertex="1" parent="Rc3S7-IxfgXDABNszkai-42">
          <mxGeometry y="120" width="514.8694397897435" height="40" as="geometry" />
        </mxCell>
        <mxCell id="Rc3S7-IxfgXDABNszkai-75" value="12345603" style="shape=partialRectangle;html=1;whiteSpace=wrap;connectable=0;strokeColor=inherit;overflow=hidden;fillColor=none;top=0;left=0;bottom=0;right=0;pointerEvents=1;fontSize=12;" vertex="1" parent="Rc3S7-IxfgXDABNszkai-74">
          <mxGeometry width="79" height="40" as="geometry">
            <mxRectangle width="79" height="40" as="alternateBounds" />
          </mxGeometry>
        </mxCell>
        <mxCell id="Rc3S7-IxfgXDABNszkai-76" value="Evrim" style="shape=partialRectangle;html=1;whiteSpace=wrap;connectable=0;strokeColor=inherit;overflow=hidden;fillColor=none;top=0;left=0;bottom=0;right=0;pointerEvents=1;fontSize=12;" vertex="1" parent="Rc3S7-IxfgXDABNszkai-74">
          <mxGeometry x="79" width="59" height="40" as="geometry">
            <mxRectangle width="59" height="40" as="alternateBounds" />
          </mxGeometry>
        </mxCell>
        <mxCell id="Rc3S7-IxfgXDABNszkai-77" value="Akmehmet" style="shape=partialRectangle;html=1;whiteSpace=wrap;connectable=0;strokeColor=inherit;overflow=hidden;fillColor=none;top=0;left=0;bottom=0;right=0;pointerEvents=1;fontSize=12;" vertex="1" parent="Rc3S7-IxfgXDABNszkai-74">
          <mxGeometry x="138" width="82" height="40" as="geometry">
            <mxRectangle width="82" height="40" as="alternateBounds" />
          </mxGeometry>
        </mxCell>
        <mxCell id="Rc3S7-IxfgXDABNszkai-78" value="2" style="shape=partialRectangle;html=1;whiteSpace=wrap;connectable=0;strokeColor=inherit;overflow=hidden;fillColor=none;top=0;left=0;bottom=0;right=0;pointerEvents=1;fontSize=12;" vertex="1" parent="Rc3S7-IxfgXDABNszkai-74">
          <mxGeometry x="220" width="91" height="40" as="geometry">
            <mxRectangle width="91" height="40" as="alternateBounds" />
          </mxGeometry>
        </mxCell>
        <mxCell id="Rc3S7-IxfgXDABNszkai-79" value="evrimakmehmet&lt;br&gt;@hotmail.com" style="shape=partialRectangle;html=1;whiteSpace=wrap;connectable=0;strokeColor=inherit;overflow=hidden;fillColor=none;top=0;left=0;bottom=0;right=0;pointerEvents=1;fontSize=12;" vertex="1" parent="Rc3S7-IxfgXDABNszkai-74">
          <mxGeometry x="311" width="102" height="40" as="geometry">
            <mxRectangle width="102" height="40" as="alternateBounds" />
          </mxGeometry>
        </mxCell>
        <mxCell id="Rc3S7-IxfgXDABNszkai-121" style="shape=partialRectangle;html=1;whiteSpace=wrap;connectable=0;strokeColor=inherit;overflow=hidden;fillColor=none;top=0;left=0;bottom=0;right=0;pointerEvents=1;fontSize=12;" vertex="1" parent="Rc3S7-IxfgXDABNszkai-74">
          <mxGeometry x="413" width="102" height="40" as="geometry">
            <mxRectangle width="102" height="40" as="alternateBounds" />
          </mxGeometry>
        </mxCell>
        <mxCell id="Rc3S7-IxfgXDABNszkai-80" style="shape=tableRow;horizontal=0;startSize=0;swimlaneHead=0;swimlaneBody=0;strokeColor=inherit;top=0;left=0;bottom=0;right=0;collapsible=0;dropTarget=0;fillColor=none;points=[[0,0.5],[1,0.5]];portConstraint=eastwest;fontSize=12;" vertex="1" parent="Rc3S7-IxfgXDABNszkai-42">
          <mxGeometry y="160" width="514.8694397897435" height="40" as="geometry" />
        </mxCell>
        <mxCell id="Rc3S7-IxfgXDABNszkai-81" value="12345604" style="shape=partialRectangle;html=1;whiteSpace=wrap;connectable=0;strokeColor=inherit;overflow=hidden;fillColor=none;top=0;left=0;bottom=0;right=0;pointerEvents=1;fontSize=12;" vertex="1" parent="Rc3S7-IxfgXDABNszkai-80">
          <mxGeometry width="79" height="40" as="geometry">
            <mxRectangle width="79" height="40" as="alternateBounds" />
          </mxGeometry>
        </mxCell>
        <mxCell id="Rc3S7-IxfgXDABNszkai-82" value="Selçuk" style="shape=partialRectangle;html=1;whiteSpace=wrap;connectable=0;strokeColor=inherit;overflow=hidden;fillColor=none;top=0;left=0;bottom=0;right=0;pointerEvents=1;fontSize=12;" vertex="1" parent="Rc3S7-IxfgXDABNszkai-80">
          <mxGeometry x="79" width="59" height="40" as="geometry">
            <mxRectangle width="59" height="40" as="alternateBounds" />
          </mxGeometry>
        </mxCell>
        <mxCell id="Rc3S7-IxfgXDABNszkai-83" value="Şekerli" style="shape=partialRectangle;html=1;whiteSpace=wrap;connectable=0;strokeColor=inherit;overflow=hidden;fillColor=none;top=0;left=0;bottom=0;right=0;pointerEvents=1;fontSize=12;" vertex="1" parent="Rc3S7-IxfgXDABNszkai-80">
          <mxGeometry x="138" width="82" height="40" as="geometry">
            <mxRectangle width="82" height="40" as="alternateBounds" />
          </mxGeometry>
        </mxCell>
        <mxCell id="Rc3S7-IxfgXDABNszkai-84" value="3" style="shape=partialRectangle;html=1;whiteSpace=wrap;connectable=0;strokeColor=inherit;overflow=hidden;fillColor=none;top=0;left=0;bottom=0;right=0;pointerEvents=1;fontSize=12;" vertex="1" parent="Rc3S7-IxfgXDABNszkai-80">
          <mxGeometry x="220" width="91" height="40" as="geometry">
            <mxRectangle width="91" height="40" as="alternateBounds" />
          </mxGeometry>
        </mxCell>
        <mxCell id="Rc3S7-IxfgXDABNszkai-85" value="selcuksekerli&lt;br&gt;@yahoo.com" style="shape=partialRectangle;html=1;whiteSpace=wrap;connectable=0;strokeColor=inherit;overflow=hidden;fillColor=none;top=0;left=0;bottom=0;right=0;pointerEvents=1;fontSize=12;" vertex="1" parent="Rc3S7-IxfgXDABNszkai-80">
          <mxGeometry x="311" width="102" height="40" as="geometry">
            <mxRectangle width="102" height="40" as="alternateBounds" />
          </mxGeometry>
        </mxCell>
        <mxCell id="Rc3S7-IxfgXDABNszkai-122" style="shape=partialRectangle;html=1;whiteSpace=wrap;connectable=0;strokeColor=inherit;overflow=hidden;fillColor=none;top=0;left=0;bottom=0;right=0;pointerEvents=1;fontSize=12;" vertex="1" parent="Rc3S7-IxfgXDABNszkai-80">
          <mxGeometry x="413" width="102" height="40" as="geometry">
            <mxRectangle width="102" height="40" as="alternateBounds" />
          </mxGeometry>
        </mxCell>
        <mxCell id="Rc3S7-IxfgXDABNszkai-142" value="" style="group" vertex="1" connectable="0" parent="Rc3S7-IxfgXDABNszkai-145">
          <mxGeometry x="424.5" y="49" width="79" height="141" as="geometry" />
        </mxCell>
        <mxCell id="Rc3S7-IxfgXDABNszkai-143" value="" style="group" vertex="1" connectable="0" parent="Rc3S7-IxfgXDABNszkai-142">
          <mxGeometry width="79" height="141" as="geometry" />
        </mxCell>
        <mxCell id="Rc3S7-IxfgXDABNszkai-124" value="Login AS" style="rounded=1;whiteSpace=wrap;html=1;fillColor=#dae8fc;strokeColor=#6c8ebf;" vertex="1" parent="Rc3S7-IxfgXDABNszkai-143">
          <mxGeometry width="79" height="23" as="geometry" />
        </mxCell>
        <mxCell id="Rc3S7-IxfgXDABNszkai-125" value="Login AS" style="rounded=1;whiteSpace=wrap;html=1;fillColor=#dae8fc;strokeColor=#6c8ebf;" vertex="1" parent="Rc3S7-IxfgXDABNszkai-143">
          <mxGeometry y="39.5" width="79" height="23" as="geometry" />
        </mxCell>
        <mxCell id="Rc3S7-IxfgXDABNszkai-126" value="Login AS" style="rounded=1;whiteSpace=wrap;html=1;fillColor=#dae8fc;strokeColor=#6c8ebf;" vertex="1" parent="Rc3S7-IxfgXDABNszkai-143">
          <mxGeometry y="78" width="79" height="23" as="geometry" />
        </mxCell>
        <mxCell id="Rc3S7-IxfgXDABNszkai-127" value="Login AS" style="rounded=1;whiteSpace=wrap;html=1;fillColor=#dae8fc;strokeColor=#6c8ebf;" vertex="1" parent="Rc3S7-IxfgXDABNszkai-143">
          <mxGeometry y="118" width="79" height="23" as="geometry" />
        </mxCell>
        <mxCell id="Rc3S7-IxfgXDABNszkai-147" value="" style="group" vertex="1" connectable="0" parent="1">
          <mxGeometry x="875" y="348" width="521.6576837005891" height="200" as="geometry" />
        </mxCell>
        <mxCell id="Rc3S7-IxfgXDABNszkai-86" value="" style="shape=table;startSize=0;container=1;collapsible=0;childLayout=tableLayout;fontSize=12;" vertex="1" parent="Rc3S7-IxfgXDABNszkai-147">
          <mxGeometry width="521.657683700589" height="200" as="geometry" />
        </mxCell>
        <mxCell id="Rc3S7-IxfgXDABNszkai-87" value="" style="shape=tableRow;horizontal=0;startSize=0;swimlaneHead=0;swimlaneBody=0;strokeColor=inherit;top=0;left=0;bottom=0;right=0;collapsible=0;dropTarget=0;fillColor=none;points=[[0,0.5],[1,0.5]];portConstraint=eastwest;fontSize=12;" vertex="1" parent="Rc3S7-IxfgXDABNszkai-86">
          <mxGeometry width="521.657683700589" height="40" as="geometry" />
        </mxCell>
        <mxCell id="Rc3S7-IxfgXDABNszkai-88" value="TC No" style="shape=partialRectangle;html=1;whiteSpace=wrap;connectable=0;strokeColor=inherit;overflow=hidden;fillColor=none;top=0;left=0;bottom=0;right=0;pointerEvents=1;fontSize=12;" vertex="1" parent="Rc3S7-IxfgXDABNszkai-87">
          <mxGeometry width="79" height="40" as="geometry">
            <mxRectangle width="79" height="40" as="alternateBounds" />
          </mxGeometry>
        </mxCell>
        <mxCell id="Rc3S7-IxfgXDABNszkai-89" value="Name" style="shape=partialRectangle;html=1;whiteSpace=wrap;connectable=0;strokeColor=inherit;overflow=hidden;fillColor=none;top=0;left=0;bottom=0;right=0;pointerEvents=1;fontSize=12;" vertex="1" parent="Rc3S7-IxfgXDABNszkai-87">
          <mxGeometry x="79" width="59" height="40" as="geometry">
            <mxRectangle width="59" height="40" as="alternateBounds" />
          </mxGeometry>
        </mxCell>
        <mxCell id="Rc3S7-IxfgXDABNszkai-90" value="Surname" style="shape=partialRectangle;html=1;whiteSpace=wrap;connectable=0;strokeColor=inherit;overflow=hidden;fillColor=none;top=0;left=0;bottom=0;right=0;pointerEvents=1;fontSize=12;" vertex="1" parent="Rc3S7-IxfgXDABNszkai-87">
          <mxGeometry x="138" width="82" height="40" as="geometry">
            <mxRectangle width="82" height="40" as="alternateBounds" />
          </mxGeometry>
        </mxCell>
        <mxCell id="Rc3S7-IxfgXDABNszkai-91" value="Department ID" style="shape=partialRectangle;html=1;whiteSpace=wrap;connectable=0;strokeColor=inherit;overflow=hidden;fillColor=none;top=0;left=0;bottom=0;right=0;pointerEvents=1;fontSize=12;" vertex="1" parent="Rc3S7-IxfgXDABNszkai-87">
          <mxGeometry x="220" width="91" height="40" as="geometry">
            <mxRectangle width="91" height="40" as="alternateBounds" />
          </mxGeometry>
        </mxCell>
        <mxCell id="Rc3S7-IxfgXDABNszkai-92" value="Email" style="shape=partialRectangle;html=1;whiteSpace=wrap;connectable=0;strokeColor=inherit;overflow=hidden;fillColor=none;top=0;left=0;bottom=0;right=0;pointerEvents=1;fontSize=12;" vertex="1" parent="Rc3S7-IxfgXDABNszkai-87">
          <mxGeometry x="311" width="102" height="40" as="geometry">
            <mxRectangle width="102" height="40" as="alternateBounds" />
          </mxGeometry>
        </mxCell>
        <mxCell id="Rc3S7-IxfgXDABNszkai-128" value="Login as professor" style="shape=partialRectangle;html=1;whiteSpace=wrap;connectable=0;strokeColor=inherit;overflow=hidden;fillColor=none;top=0;left=0;bottom=0;right=0;pointerEvents=1;fontSize=12;" vertex="1" parent="Rc3S7-IxfgXDABNszkai-87">
          <mxGeometry x="413" width="109" height="40" as="geometry">
            <mxRectangle width="109" height="40" as="alternateBounds" />
          </mxGeometry>
        </mxCell>
        <mxCell id="Rc3S7-IxfgXDABNszkai-93" value="" style="shape=tableRow;horizontal=0;startSize=0;swimlaneHead=0;swimlaneBody=0;strokeColor=inherit;top=0;left=0;bottom=0;right=0;collapsible=0;dropTarget=0;fillColor=none;points=[[0,0.5],[1,0.5]];portConstraint=eastwest;fontSize=12;" vertex="1" parent="Rc3S7-IxfgXDABNszkai-86">
          <mxGeometry y="40" width="521.657683700589" height="40" as="geometry" />
        </mxCell>
        <mxCell id="Rc3S7-IxfgXDABNszkai-94" value="98765401" style="shape=partialRectangle;html=1;whiteSpace=wrap;connectable=0;strokeColor=inherit;overflow=hidden;fillColor=none;top=0;left=0;bottom=0;right=0;pointerEvents=1;fontSize=12;" vertex="1" parent="Rc3S7-IxfgXDABNszkai-93">
          <mxGeometry width="79" height="40" as="geometry">
            <mxRectangle width="79" height="40" as="alternateBounds" />
          </mxGeometry>
        </mxCell>
        <mxCell id="Rc3S7-IxfgXDABNszkai-95" value="Orhan" style="shape=partialRectangle;html=1;whiteSpace=wrap;connectable=0;strokeColor=inherit;overflow=hidden;fillColor=none;top=0;left=0;bottom=0;right=0;pointerEvents=1;fontSize=12;" vertex="1" parent="Rc3S7-IxfgXDABNszkai-93">
          <mxGeometry x="79" width="59" height="40" as="geometry">
            <mxRectangle width="59" height="40" as="alternateBounds" />
          </mxGeometry>
        </mxCell>
        <mxCell id="Rc3S7-IxfgXDABNszkai-96" value="Metin" style="shape=partialRectangle;html=1;whiteSpace=wrap;connectable=0;strokeColor=inherit;overflow=hidden;fillColor=none;top=0;left=0;bottom=0;right=0;pointerEvents=1;fontSize=12;" vertex="1" parent="Rc3S7-IxfgXDABNszkai-93">
          <mxGeometry x="138" width="82" height="40" as="geometry">
            <mxRectangle width="82" height="40" as="alternateBounds" />
          </mxGeometry>
        </mxCell>
        <mxCell id="Rc3S7-IxfgXDABNszkai-97" value="1" style="shape=partialRectangle;html=1;whiteSpace=wrap;connectable=0;strokeColor=inherit;overflow=hidden;fillColor=none;top=0;left=0;bottom=0;right=0;pointerEvents=1;fontSize=12;" vertex="1" parent="Rc3S7-IxfgXDABNszkai-93">
          <mxGeometry x="220" width="91" height="40" as="geometry">
            <mxRectangle width="91" height="40" as="alternateBounds" />
          </mxGeometry>
        </mxCell>
        <mxCell id="Rc3S7-IxfgXDABNszkai-98" value="&lt;p style=&quot;line-height: 20%;&quot;&gt;orhanmetin&lt;/p&gt;&lt;p style=&quot;line-height: 20%;&quot;&gt;@university.edu.tr&lt;/p&gt;" style="shape=partialRectangle;html=1;connectable=0;strokeColor=inherit;overflow=hidden;fillColor=none;top=0;left=0;bottom=0;right=0;pointerEvents=1;fontSize=12;verticalAlign=middle;horizontal=1;spacingTop=-8;" vertex="1" parent="Rc3S7-IxfgXDABNszkai-93">
          <mxGeometry x="311" width="102" height="40" as="geometry">
            <mxRectangle width="102" height="40" as="alternateBounds" />
          </mxGeometry>
        </mxCell>
        <mxCell id="Rc3S7-IxfgXDABNszkai-129" style="shape=partialRectangle;html=1;connectable=0;strokeColor=inherit;overflow=hidden;fillColor=none;top=0;left=0;bottom=0;right=0;pointerEvents=1;fontSize=12;verticalAlign=middle;horizontal=1;spacingTop=-8;" vertex="1" parent="Rc3S7-IxfgXDABNszkai-93">
          <mxGeometry x="413" width="109" height="40" as="geometry">
            <mxRectangle width="109" height="40" as="alternateBounds" />
          </mxGeometry>
        </mxCell>
        <mxCell id="Rc3S7-IxfgXDABNszkai-99" value="" style="shape=tableRow;horizontal=0;startSize=0;swimlaneHead=0;swimlaneBody=0;strokeColor=inherit;top=0;left=0;bottom=0;right=0;collapsible=0;dropTarget=0;fillColor=none;points=[[0,0.5],[1,0.5]];portConstraint=eastwest;fontSize=12;" vertex="1" parent="Rc3S7-IxfgXDABNszkai-86">
          <mxGeometry y="80" width="521.657683700589" height="40" as="geometry" />
        </mxCell>
        <mxCell id="Rc3S7-IxfgXDABNszkai-100" value="98765402" style="shape=partialRectangle;html=1;whiteSpace=wrap;connectable=0;strokeColor=inherit;overflow=hidden;fillColor=none;top=0;left=0;bottom=0;right=0;pointerEvents=1;fontSize=12;" vertex="1" parent="Rc3S7-IxfgXDABNszkai-99">
          <mxGeometry width="79" height="40" as="geometry">
            <mxRectangle width="79" height="40" as="alternateBounds" />
          </mxGeometry>
        </mxCell>
        <mxCell id="Rc3S7-IxfgXDABNszkai-101" value="Berfin" style="shape=partialRectangle;html=1;whiteSpace=wrap;connectable=0;strokeColor=inherit;overflow=hidden;fillColor=none;top=0;left=0;bottom=0;right=0;pointerEvents=1;fontSize=12;" vertex="1" parent="Rc3S7-IxfgXDABNszkai-99">
          <mxGeometry x="79" width="59" height="40" as="geometry">
            <mxRectangle width="59" height="40" as="alternateBounds" />
          </mxGeometry>
        </mxCell>
        <mxCell id="Rc3S7-IxfgXDABNszkai-102" value="Kaylan" style="shape=partialRectangle;html=1;whiteSpace=wrap;connectable=0;strokeColor=inherit;overflow=hidden;fillColor=none;top=0;left=0;bottom=0;right=0;pointerEvents=1;fontSize=12;" vertex="1" parent="Rc3S7-IxfgXDABNszkai-99">
          <mxGeometry x="138" width="82" height="40" as="geometry">
            <mxRectangle width="82" height="40" as="alternateBounds" />
          </mxGeometry>
        </mxCell>
        <mxCell id="Rc3S7-IxfgXDABNszkai-103" value="1" style="shape=partialRectangle;html=1;whiteSpace=wrap;connectable=0;strokeColor=inherit;overflow=hidden;fillColor=none;top=0;left=0;bottom=0;right=0;pointerEvents=1;fontSize=12;" vertex="1" parent="Rc3S7-IxfgXDABNszkai-99">
          <mxGeometry x="220" width="91" height="40" as="geometry">
            <mxRectangle width="91" height="40" as="alternateBounds" />
          </mxGeometry>
        </mxCell>
        <mxCell id="Rc3S7-IxfgXDABNszkai-104" value="berfinkaylan&lt;br&gt;@university.edu.tr" style="shape=partialRectangle;html=1;whiteSpace=wrap;connectable=0;strokeColor=inherit;overflow=hidden;fillColor=none;top=0;left=0;bottom=0;right=0;pointerEvents=1;fontSize=12;" vertex="1" parent="Rc3S7-IxfgXDABNszkai-99">
          <mxGeometry x="311" width="102" height="40" as="geometry">
            <mxRectangle width="102" height="40" as="alternateBounds" />
          </mxGeometry>
        </mxCell>
        <mxCell id="Rc3S7-IxfgXDABNszkai-130" style="shape=partialRectangle;html=1;whiteSpace=wrap;connectable=0;strokeColor=inherit;overflow=hidden;fillColor=none;top=0;left=0;bottom=0;right=0;pointerEvents=1;fontSize=12;" vertex="1" parent="Rc3S7-IxfgXDABNszkai-99">
          <mxGeometry x="413" width="109" height="40" as="geometry">
            <mxRectangle width="109" height="40" as="alternateBounds" />
          </mxGeometry>
        </mxCell>
        <mxCell id="Rc3S7-IxfgXDABNszkai-105" style="shape=tableRow;horizontal=0;startSize=0;swimlaneHead=0;swimlaneBody=0;strokeColor=inherit;top=0;left=0;bottom=0;right=0;collapsible=0;dropTarget=0;fillColor=none;points=[[0,0.5],[1,0.5]];portConstraint=eastwest;fontSize=12;" vertex="1" parent="Rc3S7-IxfgXDABNszkai-86">
          <mxGeometry y="120" width="521.657683700589" height="40" as="geometry" />
        </mxCell>
        <mxCell id="Rc3S7-IxfgXDABNszkai-106" value="98765403" style="shape=partialRectangle;html=1;whiteSpace=wrap;connectable=0;strokeColor=inherit;overflow=hidden;fillColor=none;top=0;left=0;bottom=0;right=0;pointerEvents=1;fontSize=12;" vertex="1" parent="Rc3S7-IxfgXDABNszkai-105">
          <mxGeometry width="79" height="40" as="geometry">
            <mxRectangle width="79" height="40" as="alternateBounds" />
          </mxGeometry>
        </mxCell>
        <mxCell id="Rc3S7-IxfgXDABNszkai-107" value="Bulut" style="shape=partialRectangle;html=1;whiteSpace=wrap;connectable=0;strokeColor=inherit;overflow=hidden;fillColor=none;top=0;left=0;bottom=0;right=0;pointerEvents=1;fontSize=12;" vertex="1" parent="Rc3S7-IxfgXDABNszkai-105">
          <mxGeometry x="79" width="59" height="40" as="geometry">
            <mxRectangle width="59" height="40" as="alternateBounds" />
          </mxGeometry>
        </mxCell>
        <mxCell id="Rc3S7-IxfgXDABNszkai-108" value="Susam" style="shape=partialRectangle;html=1;whiteSpace=wrap;connectable=0;strokeColor=inherit;overflow=hidden;fillColor=none;top=0;left=0;bottom=0;right=0;pointerEvents=1;fontSize=12;" vertex="1" parent="Rc3S7-IxfgXDABNszkai-105">
          <mxGeometry x="138" width="82" height="40" as="geometry">
            <mxRectangle width="82" height="40" as="alternateBounds" />
          </mxGeometry>
        </mxCell>
        <mxCell id="Rc3S7-IxfgXDABNszkai-109" value="2" style="shape=partialRectangle;html=1;whiteSpace=wrap;connectable=0;strokeColor=inherit;overflow=hidden;fillColor=none;top=0;left=0;bottom=0;right=0;pointerEvents=1;fontSize=12;" vertex="1" parent="Rc3S7-IxfgXDABNszkai-105">
          <mxGeometry x="220" width="91" height="40" as="geometry">
            <mxRectangle width="91" height="40" as="alternateBounds" />
          </mxGeometry>
        </mxCell>
        <mxCell id="Rc3S7-IxfgXDABNszkai-110" value="bulutsusam&lt;br&gt;@gmail.com" style="shape=partialRectangle;html=1;whiteSpace=wrap;connectable=0;strokeColor=inherit;overflow=hidden;fillColor=none;top=0;left=0;bottom=0;right=0;pointerEvents=1;fontSize=12;" vertex="1" parent="Rc3S7-IxfgXDABNszkai-105">
          <mxGeometry x="311" width="102" height="40" as="geometry">
            <mxRectangle width="102" height="40" as="alternateBounds" />
          </mxGeometry>
        </mxCell>
        <mxCell id="Rc3S7-IxfgXDABNszkai-131" style="shape=partialRectangle;html=1;whiteSpace=wrap;connectable=0;strokeColor=inherit;overflow=hidden;fillColor=none;top=0;left=0;bottom=0;right=0;pointerEvents=1;fontSize=12;" vertex="1" parent="Rc3S7-IxfgXDABNszkai-105">
          <mxGeometry x="413" width="109" height="40" as="geometry">
            <mxRectangle width="109" height="40" as="alternateBounds" />
          </mxGeometry>
        </mxCell>
        <mxCell id="Rc3S7-IxfgXDABNszkai-111" style="shape=tableRow;horizontal=0;startSize=0;swimlaneHead=0;swimlaneBody=0;strokeColor=inherit;top=0;left=0;bottom=0;right=0;collapsible=0;dropTarget=0;fillColor=none;points=[[0,0.5],[1,0.5]];portConstraint=eastwest;fontSize=12;" vertex="1" parent="Rc3S7-IxfgXDABNszkai-86">
          <mxGeometry y="160" width="521.657683700589" height="40" as="geometry" />
        </mxCell>
        <mxCell id="Rc3S7-IxfgXDABNszkai-112" value="98765404" style="shape=partialRectangle;html=1;whiteSpace=wrap;connectable=0;strokeColor=inherit;overflow=hidden;fillColor=none;top=0;left=0;bottom=0;right=0;pointerEvents=1;fontSize=12;" vertex="1" parent="Rc3S7-IxfgXDABNszkai-111">
          <mxGeometry width="79" height="40" as="geometry">
            <mxRectangle width="79" height="40" as="alternateBounds" />
          </mxGeometry>
        </mxCell>
        <mxCell id="Rc3S7-IxfgXDABNszkai-113" value="Mustafa" style="shape=partialRectangle;html=1;whiteSpace=wrap;connectable=0;strokeColor=inherit;overflow=hidden;fillColor=none;top=0;left=0;bottom=0;right=0;pointerEvents=1;fontSize=12;" vertex="1" parent="Rc3S7-IxfgXDABNszkai-111">
          <mxGeometry x="79" width="59" height="40" as="geometry">
            <mxRectangle width="59" height="40" as="alternateBounds" />
          </mxGeometry>
        </mxCell>
        <mxCell id="Rc3S7-IxfgXDABNszkai-114" value="Birdal" style="shape=partialRectangle;html=1;whiteSpace=wrap;connectable=0;strokeColor=inherit;overflow=hidden;fillColor=none;top=0;left=0;bottom=0;right=0;pointerEvents=1;fontSize=12;" vertex="1" parent="Rc3S7-IxfgXDABNszkai-111">
          <mxGeometry x="138" width="82" height="40" as="geometry">
            <mxRectangle width="82" height="40" as="alternateBounds" />
          </mxGeometry>
        </mxCell>
        <mxCell id="Rc3S7-IxfgXDABNszkai-115" value="3" style="shape=partialRectangle;html=1;whiteSpace=wrap;connectable=0;strokeColor=inherit;overflow=hidden;fillColor=none;top=0;left=0;bottom=0;right=0;pointerEvents=1;fontSize=12;" vertex="1" parent="Rc3S7-IxfgXDABNszkai-111">
          <mxGeometry x="220" width="91" height="40" as="geometry">
            <mxRectangle width="91" height="40" as="alternateBounds" />
          </mxGeometry>
        </mxCell>
        <mxCell id="Rc3S7-IxfgXDABNszkai-116" value="mustafabirdal&lt;br&gt;@hotmali.com" style="shape=partialRectangle;html=1;whiteSpace=wrap;connectable=0;strokeColor=inherit;overflow=hidden;fillColor=none;top=0;left=0;bottom=0;right=0;pointerEvents=1;fontSize=12;" vertex="1" parent="Rc3S7-IxfgXDABNszkai-111">
          <mxGeometry x="311" width="102" height="40" as="geometry">
            <mxRectangle width="102" height="40" as="alternateBounds" />
          </mxGeometry>
        </mxCell>
        <mxCell id="Rc3S7-IxfgXDABNszkai-132" style="shape=partialRectangle;html=1;whiteSpace=wrap;connectable=0;strokeColor=inherit;overflow=hidden;fillColor=none;top=0;left=0;bottom=0;right=0;pointerEvents=1;fontSize=12;" vertex="1" parent="Rc3S7-IxfgXDABNszkai-111">
          <mxGeometry x="413" width="109" height="40" as="geometry">
            <mxRectangle width="109" height="40" as="alternateBounds" />
          </mxGeometry>
        </mxCell>
        <mxCell id="Rc3S7-IxfgXDABNszkai-146" value="" style="group" vertex="1" connectable="0" parent="Rc3S7-IxfgXDABNszkai-147">
          <mxGeometry x="424" y="48" width="79" height="141" as="geometry" />
        </mxCell>
        <mxCell id="Rc3S7-IxfgXDABNszkai-133" value="Login AS" style="rounded=1;whiteSpace=wrap;html=1;fillColor=#dae8fc;strokeColor=#6c8ebf;" vertex="1" parent="Rc3S7-IxfgXDABNszkai-146">
          <mxGeometry width="79" height="23" as="geometry" />
        </mxCell>
        <mxCell id="Rc3S7-IxfgXDABNszkai-134" value="Login AS" style="rounded=1;whiteSpace=wrap;html=1;fillColor=#dae8fc;strokeColor=#6c8ebf;" vertex="1" parent="Rc3S7-IxfgXDABNszkai-146">
          <mxGeometry y="39.5" width="79" height="23" as="geometry" />
        </mxCell>
        <mxCell id="Rc3S7-IxfgXDABNszkai-135" value="Login AS" style="rounded=1;whiteSpace=wrap;html=1;fillColor=#dae8fc;strokeColor=#6c8ebf;" vertex="1" parent="Rc3S7-IxfgXDABNszkai-146">
          <mxGeometry y="78" width="79" height="23" as="geometry" />
        </mxCell>
        <mxCell id="Rc3S7-IxfgXDABNszkai-136" value="Login AS" style="rounded=1;whiteSpace=wrap;html=1;fillColor=#dae8fc;strokeColor=#6c8ebf;" vertex="1" parent="Rc3S7-IxfgXDABNszkai-146">
          <mxGeometry y="118" width="79" height="23" as="geometry" />
        </mxCell>
        <mxCell id="Rc3S7-IxfgXDABNszkai-148" value="" style="endArrow=none;html=1;rounded=0;strokeWidth=5;" edge="1" parent="1">
          <mxGeometry width="50" height="50" relative="1" as="geometry">
            <mxPoint x="181" y="2266" as="sourcePoint" />
            <mxPoint x="181" y="1265" as="targetPoint" />
          </mxGeometry>
        </mxCell>
        <mxCell id="Rc3S7-IxfgXDABNszkai-149" value="" style="endArrow=none;html=1;rounded=0;strokeWidth=5;" edge="1" parent="1">
          <mxGeometry width="50" height="50" relative="1" as="geometry">
            <mxPoint x="72" y="2167" as="sourcePoint" />
            <mxPoint x="1529" y="2167" as="targetPoint" />
          </mxGeometry>
        </mxCell>
        <mxCell id="Rc3S7-IxfgXDABNszkai-150" value="" style="endArrow=none;html=1;rounded=0;strokeWidth=5;" edge="1" parent="1">
          <mxGeometry width="50" height="50" relative="1" as="geometry">
            <mxPoint x="94" y="1368" as="sourcePoint" />
            <mxPoint x="1551" y="1368" as="targetPoint" />
          </mxGeometry>
        </mxCell>
        <mxCell id="Rc3S7-IxfgXDABNszkai-151" value="" style="endArrow=none;html=1;rounded=0;strokeWidth=5;" edge="1" parent="1">
          <mxGeometry width="50" height="50" relative="1" as="geometry">
            <mxPoint x="1464" y="2282" as="sourcePoint" />
            <mxPoint x="1464" y="1281" as="targetPoint" />
          </mxGeometry>
        </mxCell>
      </root>
    </mxGraphModel>
  </diagram>
</mxfile>
